<mxfile host="app.diagrams.net" modified="2023-11-29T03:43:48.568Z" agent="Mozilla/5.0 (Macintosh; Intel Mac OS X 10_15_7) AppleWebKit/537.36 (KHTML, like Gecko) Chrome/119.0.0.0 Safari/537.36" etag="OHLGEnR1sd_Wa5Z0nD4n" version="22.1.4" type="github">
  <diagram name="第 1 页" id="4eC4Y5nyNUY1-vNa9eZq">
    <mxGraphModel dx="1905" dy="702" grid="1" gridSize="10" guides="1" tooltips="1" connect="1" arrows="1" fold="1" page="1" pageScale="1" pageWidth="827" pageHeight="1169" math="0" shadow="0">
      <root>
        <mxCell id="0" />
        <mxCell id="1" parent="0" />
        <mxCell id="cjf3HgqTAm4N_7wbF4_n-6" value="" style="rounded=1;whiteSpace=wrap;html=1;fillColor=#fff2cc;strokeColor=#d6b656;arcSize=3;fontSize=11;" parent="1" vertex="1">
          <mxGeometry x="-40" y="40" width="560" height="120" as="geometry" />
        </mxCell>
        <mxCell id="cjf3HgqTAm4N_7wbF4_n-5" value="&lt;h1 style=&quot;font-size: 11px;&quot;&gt;&lt;font style=&quot;font-size: 11px; font-weight: normal;&quot;&gt;&lt;br style=&quot;font-size: 11px;&quot;&gt;&lt;/font&gt;&lt;/h1&gt;&lt;h1 style=&quot;font-size: 11px;&quot;&gt;&lt;font style=&quot;font-size: 11px; font-weight: normal;&quot;&gt;1. 前端访问受保护资源Header携带系统Ticket（Token）和全局SSO登录状态Cookie；&lt;/font&gt;&lt;/h1&gt;&lt;h1 style=&quot;font-size: 11px;&quot;&gt;&lt;span style=&quot;font-weight: normal; font-size: 11px;&quot;&gt;2. Cookie需要设置httpOnly=true、Secure，保证Cookie只能通过https传输和禁止js修改；&lt;/span&gt;&lt;/h1&gt;&lt;div style=&quot;font-size: 11px;&quot;&gt;&lt;span style=&quot;background-color: initial; font-size: 11px;&quot;&gt;3. Ticket （Token）换取Auth Token；&lt;/span&gt;&lt;br style=&quot;font-size: 11px;&quot;&gt;&lt;/div&gt;&lt;div style=&quot;font-size: 11px;&quot;&gt;&lt;font style=&quot;font-weight: normal; font-size: 11px;&quot;&gt;&lt;br style=&quot;font-size: 11px;&quot;&gt;&lt;/font&gt;&lt;/div&gt;" style="text;html=1;strokeColor=none;fillColor=none;spacing=5;spacingTop=-20;whiteSpace=wrap;overflow=hidden;rounded=0;fontSize=11;" parent="1" vertex="1">
          <mxGeometry x="-40" y="40" width="540" height="120" as="geometry" />
        </mxCell>
        <mxCell id="cjf3HgqTAm4N_7wbF4_n-7" value="浏览器" style="rounded=0;whiteSpace=wrap;html=1;fillColor=#f5f5f5;shadow=1;strokeColor=#666666;fontColor=#333333;fontSize=11;" parent="1" vertex="1">
          <mxGeometry x="-90" y="200" width="120" height="40" as="geometry" />
        </mxCell>
        <mxCell id="cjf3HgqTAm4N_7wbF4_n-8" value="A系统&lt;br style=&quot;font-size: 11px;&quot;&gt;a.example.com" style="rounded=0;whiteSpace=wrap;html=1;fillColor=#d5e8d4;shadow=1;strokeColor=#82b366;fontSize=11;" parent="1" vertex="1">
          <mxGeometry x="180" y="200" width="120" height="40" as="geometry" />
        </mxCell>
        <mxCell id="cjf3HgqTAm4N_7wbF4_n-9" value="B系统&lt;br style=&quot;border-color: var(--border-color); font-size: 11px;&quot;&gt;b.example.com" style="rounded=0;whiteSpace=wrap;html=1;fillColor=#dae8fc;shadow=1;strokeColor=#6c8ebf;fontSize=11;" parent="1" vertex="1">
          <mxGeometry x="400" y="200" width="120" height="40" as="geometry" />
        </mxCell>
        <mxCell id="cjf3HgqTAm4N_7wbF4_n-10" value="认证中心&lt;br style=&quot;font-size: 11px;&quot;&gt;sso.com" style="rounded=0;whiteSpace=wrap;html=1;fillColor=#f8cecc;shadow=1;strokeColor=#b85450;fontSize=11;" parent="1" vertex="1">
          <mxGeometry x="600" y="200" width="120" height="40" as="geometry" />
        </mxCell>
        <mxCell id="leE8Cb88VZXqTR05hnTv-3" value="" style="endArrow=none;dashed=1;html=1;rounded=0;entryX=0.5;entryY=1;entryDx=0;entryDy=0;" edge="1" parent="1" source="leE8Cb88VZXqTR05hnTv-28" target="cjf3HgqTAm4N_7wbF4_n-7">
          <mxGeometry width="50" height="50" relative="1" as="geometry">
            <mxPoint x="-30" y="750" as="sourcePoint" />
            <mxPoint x="-5" y="290" as="targetPoint" />
          </mxGeometry>
        </mxCell>
        <mxCell id="leE8Cb88VZXqTR05hnTv-1" value="" style="html=1;points=[[0,0,0,0,5],[0,1,0,0,-5],[1,0,0,0,5],[1,1,0,0,-5]];perimeter=orthogonalPerimeter;outlineConnect=0;targetShapes=umlLifeline;portConstraint=eastwest;newEdgeStyle={&quot;curved&quot;:0,&quot;rounded&quot;:0};fillColor=#f5f5f5;fontColor=#333333;strokeColor=#666666;fontSize=11;" vertex="1" parent="1">
          <mxGeometry x="-35" y="280" width="10" height="120" as="geometry" />
        </mxCell>
        <mxCell id="leE8Cb88VZXqTR05hnTv-4" value="" style="endArrow=none;dashed=1;html=1;rounded=0;entryX=0.5;entryY=1;entryDx=0;entryDy=0;fontSize=11;" edge="1" parent="1" source="leE8Cb88VZXqTR05hnTv-7">
          <mxGeometry width="50" height="50" relative="1" as="geometry">
            <mxPoint x="239.5" y="750" as="sourcePoint" />
            <mxPoint x="239.5" y="240" as="targetPoint" />
          </mxGeometry>
        </mxCell>
        <mxCell id="leE8Cb88VZXqTR05hnTv-5" value="" style="endArrow=none;dashed=1;html=1;rounded=0;entryX=0.5;entryY=1;entryDx=0;entryDy=0;" edge="1" parent="1" source="leE8Cb88VZXqTR05hnTv-49">
          <mxGeometry width="50" height="50" relative="1" as="geometry">
            <mxPoint x="459" y="880" as="sourcePoint" />
            <mxPoint x="459.5" y="240" as="targetPoint" />
          </mxGeometry>
        </mxCell>
        <mxCell id="leE8Cb88VZXqTR05hnTv-6" value="" style="endArrow=none;dashed=1;html=1;rounded=0;entryX=0.5;entryY=1;entryDx=0;entryDy=0;" edge="1" parent="1" source="leE8Cb88VZXqTR05hnTv-9">
          <mxGeometry width="50" height="50" relative="1" as="geometry">
            <mxPoint x="659.5" y="750" as="sourcePoint" />
            <mxPoint x="659.5" y="240" as="targetPoint" />
          </mxGeometry>
        </mxCell>
        <mxCell id="leE8Cb88VZXqTR05hnTv-8" value="" style="endArrow=none;dashed=1;html=1;rounded=0;entryX=0.5;entryY=1;entryDx=0;entryDy=0;" edge="1" parent="1" target="leE8Cb88VZXqTR05hnTv-7">
          <mxGeometry width="50" height="50" relative="1" as="geometry">
            <mxPoint x="240" y="650" as="sourcePoint" />
            <mxPoint x="239.5" y="240" as="targetPoint" />
          </mxGeometry>
        </mxCell>
        <mxCell id="leE8Cb88VZXqTR05hnTv-7" value="" style="html=1;points=[[0,0,0,0,5],[0,1,0,0,-5],[1,0,0,0,5],[1,1,0,0,-5]];perimeter=orthogonalPerimeter;outlineConnect=0;targetShapes=umlLifeline;portConstraint=eastwest;newEdgeStyle={&quot;curved&quot;:0,&quot;rounded&quot;:0};fillColor=#d5e8d4;strokeColor=#82b366;fontSize=11;" vertex="1" parent="1">
          <mxGeometry x="235" y="280" width="10" height="50" as="geometry" />
        </mxCell>
        <mxCell id="leE8Cb88VZXqTR05hnTv-15" value="访问https://a.example.com/home" style="html=1;verticalAlign=bottom;endArrow=block;curved=0;rounded=0;fontSize=11;" edge="1" parent="1" source="leE8Cb88VZXqTR05hnTv-1" target="leE8Cb88VZXqTR05hnTv-7">
          <mxGeometry x="-0.0028" width="80" relative="1" as="geometry">
            <mxPoint x="30" y="330" as="sourcePoint" />
            <mxPoint x="110" y="330" as="targetPoint" />
            <Array as="points">
              <mxPoint x="70" y="280" />
            </Array>
            <mxPoint as="offset" />
          </mxGeometry>
        </mxCell>
        <mxCell id="leE8Cb88VZXqTR05hnTv-20" value="ticket&amp;nbsp; 失效，需要登录" style="html=1;align=left;spacingLeft=2;endArrow=block;rounded=0;edgeStyle=orthogonalEdgeStyle;curved=0;rounded=0;fontSize=11;" edge="1" parent="1">
          <mxGeometry x="-0.0601" relative="1" as="geometry">
            <mxPoint x="245" y="280" as="sourcePoint" />
            <Array as="points">
              <mxPoint x="275" y="310" />
            </Array>
            <mxPoint x="250" y="310" as="targetPoint" />
            <mxPoint as="offset" />
          </mxGeometry>
        </mxCell>
        <mxCell id="leE8Cb88VZXqTR05hnTv-22" value="302 redirect" style="text;html=1;strokeColor=none;fillColor=none;align=center;verticalAlign=middle;whiteSpace=wrap;rounded=0;fontSize=11;" vertex="1" parent="1">
          <mxGeometry x="60" y="305" width="70" height="30" as="geometry" />
        </mxCell>
        <mxCell id="leE8Cb88VZXqTR05hnTv-23" value="" style="endArrow=none;dashed=1;html=1;rounded=0;entryX=0.5;entryY=1;entryDx=0;entryDy=0;" edge="1" parent="1" source="leE8Cb88VZXqTR05hnTv-30" target="leE8Cb88VZXqTR05hnTv-9">
          <mxGeometry width="50" height="50" relative="1" as="geometry">
            <mxPoint x="659.5" y="750" as="sourcePoint" />
            <mxPoint x="659.5" y="240" as="targetPoint" />
          </mxGeometry>
        </mxCell>
        <mxCell id="leE8Cb88VZXqTR05hnTv-9" value="" style="html=1;points=[[0,0,0,0,5],[0,1,0,0,-5],[1,0,0,0,5],[1,1,0,0,-5]];perimeter=orthogonalPerimeter;outlineConnect=0;targetShapes=umlLifeline;portConstraint=eastwest;newEdgeStyle={&quot;curved&quot;:0,&quot;rounded&quot;:0};fillColor=#f8cecc;strokeColor=#b85450;fontSize=11;" vertex="1" parent="1">
          <mxGeometry x="655" y="320" width="10" height="80" as="geometry" />
        </mxCell>
        <mxCell id="leE8Cb88VZXqTR05hnTv-25" value="访问SSO,无SSO凭证&amp;nbsp; https://sso.com/login?redirect=a.com/home" style="html=1;verticalAlign=bottom;endArrow=block;curved=0;rounded=0;" edge="1" parent="1">
          <mxGeometry width="80" relative="1" as="geometry">
            <mxPoint x="-25" y="350" as="sourcePoint" />
            <mxPoint x="650" y="350" as="targetPoint" />
          </mxGeometry>
        </mxCell>
        <mxCell id="leE8Cb88VZXqTR05hnTv-26" value="SSO凭证校验失败" style="html=1;align=left;spacingLeft=2;endArrow=block;rounded=0;edgeStyle=orthogonalEdgeStyle;curved=0;rounded=0;fontSize=11;" edge="1" parent="1">
          <mxGeometry x="-0.0601" relative="1" as="geometry">
            <mxPoint x="665" y="350" as="sourcePoint" />
            <Array as="points">
              <mxPoint x="695" y="380" />
            </Array>
            <mxPoint x="670" y="380" as="targetPoint" />
            <mxPoint as="offset" />
          </mxGeometry>
        </mxCell>
        <mxCell id="leE8Cb88VZXqTR05hnTv-27" value="需要登录" style="html=1;verticalAlign=bottom;endArrow=open;dashed=1;endSize=8;curved=0;rounded=0;" edge="1" parent="1" target="leE8Cb88VZXqTR05hnTv-1">
          <mxGeometry relative="1" as="geometry">
            <mxPoint x="655" y="380" as="sourcePoint" />
            <mxPoint x="-20" y="380" as="targetPoint" />
            <mxPoint as="offset" />
          </mxGeometry>
        </mxCell>
        <mxCell id="leE8Cb88VZXqTR05hnTv-29" value="" style="endArrow=none;dashed=1;html=1;rounded=0;entryX=0.5;entryY=1;entryDx=0;entryDy=0;" edge="1" parent="1" source="leE8Cb88VZXqTR05hnTv-46" target="leE8Cb88VZXqTR05hnTv-28">
          <mxGeometry width="50" height="50" relative="1" as="geometry">
            <mxPoint x="-31" y="880" as="sourcePoint" />
            <mxPoint x="-30" y="240" as="targetPoint" />
          </mxGeometry>
        </mxCell>
        <mxCell id="leE8Cb88VZXqTR05hnTv-28" value="" style="html=1;points=[[0,0,0,0,5],[0,1,0,0,-5],[1,0,0,0,5],[1,1,0,0,-5]];perimeter=orthogonalPerimeter;outlineConnect=0;targetShapes=umlLifeline;portConstraint=eastwest;newEdgeStyle={&quot;curved&quot;:0,&quot;rounded&quot;:0};fillColor=#f5f5f5;fontColor=#333333;strokeColor=#666666;fontSize=11;" vertex="1" parent="1">
          <mxGeometry x="-35" y="420" width="10" height="180" as="geometry" />
        </mxCell>
        <mxCell id="leE8Cb88VZXqTR05hnTv-31" value="" style="endArrow=none;dashed=1;html=1;rounded=0;entryX=0.5;entryY=1;entryDx=0;entryDy=0;" edge="1" parent="1" source="leE8Cb88VZXqTR05hnTv-39" target="leE8Cb88VZXqTR05hnTv-30">
          <mxGeometry width="50" height="50" relative="1" as="geometry">
            <mxPoint x="659.5" y="750" as="sourcePoint" />
            <mxPoint x="660" y="400" as="targetPoint" />
          </mxGeometry>
        </mxCell>
        <mxCell id="leE8Cb88VZXqTR05hnTv-30" value="" style="html=1;points=[[0,0,0,0,5],[0,1,0,0,-5],[1,0,0,0,5],[1,1,0,0,-5]];perimeter=orthogonalPerimeter;outlineConnect=0;targetShapes=umlLifeline;portConstraint=eastwest;newEdgeStyle={&quot;curved&quot;:0,&quot;rounded&quot;:0};fillColor=#f8cecc;strokeColor=#b85450;fontSize=11;" vertex="1" parent="1">
          <mxGeometry x="655" y="420" width="10" height="80" as="geometry" />
        </mxCell>
        <mxCell id="leE8Cb88VZXqTR05hnTv-32" value="https://sso.com/login" style="html=1;verticalAlign=bottom;endArrow=block;curved=0;rounded=0;" edge="1" parent="1">
          <mxGeometry width="80" relative="1" as="geometry">
            <mxPoint x="-25" y="430" as="sourcePoint" />
            <mxPoint x="650" y="430" as="targetPoint" />
          </mxGeometry>
        </mxCell>
        <mxCell id="leE8Cb88VZXqTR05hnTv-33" value="输入账号密码" style="html=1;align=left;spacingLeft=2;endArrow=block;rounded=0;edgeStyle=orthogonalEdgeStyle;curved=0;rounded=0;fontSize=11;" edge="1" parent="1">
          <mxGeometry x="0.0031" relative="1" as="geometry">
            <mxPoint x="-35" y="400" as="sourcePoint" />
            <Array as="points">
              <mxPoint x="-35" y="380" />
              <mxPoint x="-140" y="380" />
              <mxPoint x="-140" y="430" />
              <mxPoint x="-40" y="430" />
            </Array>
            <mxPoint x="-40" y="430" as="targetPoint" />
            <mxPoint as="offset" />
          </mxGeometry>
        </mxCell>
        <mxCell id="leE8Cb88VZXqTR05hnTv-34" value="用户密码&lt;br&gt;校验通过" style="html=1;align=left;spacingLeft=2;endArrow=block;rounded=0;edgeStyle=orthogonalEdgeStyle;curved=0;rounded=0;fontSize=11;" edge="1" parent="1">
          <mxGeometry x="-0.0601" relative="1" as="geometry">
            <mxPoint x="665" y="430" as="sourcePoint" />
            <Array as="points">
              <mxPoint x="695" y="430" />
              <mxPoint x="695" y="460" />
              <mxPoint x="670" y="460" />
            </Array>
            <mxPoint x="670" y="460" as="targetPoint" />
            <mxPoint as="offset" />
          </mxGeometry>
        </mxCell>
        <mxCell id="leE8Cb88VZXqTR05hnTv-35" value="返回子系统ticket、SSO凭证、refresh Token" style="html=1;verticalAlign=bottom;endArrow=open;dashed=1;endSize=8;curved=0;rounded=0;" edge="1" parent="1">
          <mxGeometry relative="1" as="geometry">
            <mxPoint x="655" y="459.87" as="sourcePoint" />
            <mxPoint x="-25" y="459.87" as="targetPoint" />
            <mxPoint as="offset" />
          </mxGeometry>
        </mxCell>
        <mxCell id="leE8Cb88VZXqTR05hnTv-36" value="localStorage存储&lt;br&gt;子系统Ticket&lt;br&gt;Refresh Token" style="html=1;align=left;spacingLeft=2;endArrow=block;rounded=0;edgeStyle=orthogonalEdgeStyle;curved=0;rounded=0;fontSize=11;" edge="1" parent="1" source="leE8Cb88VZXqTR05hnTv-28">
          <mxGeometry x="-0.0566" relative="1" as="geometry">
            <mxPoint x="-35" y="500" as="sourcePoint" />
            <Array as="points">
              <mxPoint x="-140" y="460" />
              <mxPoint x="-140" y="520" />
            </Array>
            <mxPoint x="-40" y="520" as="targetPoint" />
            <mxPoint as="offset" />
          </mxGeometry>
        </mxCell>
        <mxCell id="leE8Cb88VZXqTR05hnTv-37" value="" style="html=1;points=[[0,0,0,0,5],[0,1,0,0,-5],[1,0,0,0,5],[1,1,0,0,-5]];perimeter=orthogonalPerimeter;outlineConnect=0;targetShapes=umlLifeline;portConstraint=eastwest;newEdgeStyle={&quot;curved&quot;:0,&quot;rounded&quot;:0};fillColor=#d5e8d4;strokeColor=#82b366;fontSize=11;" vertex="1" parent="1">
          <mxGeometry x="235" y="520" width="10" height="90" as="geometry" />
        </mxCell>
        <mxCell id="leE8Cb88VZXqTR05hnTv-38" value="访问https://a.example.com/home、带ticket" style="html=1;verticalAlign=bottom;endArrow=block;curved=0;rounded=0;fontSize=11;" edge="1" parent="1">
          <mxGeometry x="-0.0028" width="80" relative="1" as="geometry">
            <mxPoint x="-25" y="520" as="sourcePoint" />
            <mxPoint x="235" y="520" as="targetPoint" />
            <Array as="points">
              <mxPoint x="70" y="520" />
            </Array>
            <mxPoint as="offset" />
          </mxGeometry>
        </mxCell>
        <mxCell id="leE8Cb88VZXqTR05hnTv-40" value="" style="endArrow=none;dashed=1;html=1;rounded=0;entryX=0.5;entryY=1;entryDx=0;entryDy=0;" edge="1" parent="1" target="leE8Cb88VZXqTR05hnTv-39">
          <mxGeometry width="50" height="50" relative="1" as="geometry">
            <mxPoint x="659" y="880" as="sourcePoint" />
            <mxPoint x="660" y="500" as="targetPoint" />
          </mxGeometry>
        </mxCell>
        <mxCell id="leE8Cb88VZXqTR05hnTv-39" value="" style="html=1;points=[[0,0,0,0,5],[0,1,0,0,-5],[1,0,0,0,5],[1,1,0,0,-5]];perimeter=orthogonalPerimeter;outlineConnect=0;targetShapes=umlLifeline;portConstraint=eastwest;newEdgeStyle={&quot;curved&quot;:0,&quot;rounded&quot;:0};fillColor=#f8cecc;strokeColor=#b85450;fontSize=11;" vertex="1" parent="1">
          <mxGeometry x="655" y="520" width="10" height="80" as="geometry" />
        </mxCell>
        <mxCell id="leE8Cb88VZXqTR05hnTv-41" value="校验ticket" style="html=1;verticalAlign=bottom;endArrow=block;curved=0;rounded=0;fontSize=11;" edge="1" parent="1">
          <mxGeometry x="-0.0028" width="80" relative="1" as="geometry">
            <mxPoint x="245" y="520" as="sourcePoint" />
            <mxPoint x="650" y="520" as="targetPoint" />
            <Array as="points">
              <mxPoint x="340" y="520" />
            </Array>
            <mxPoint as="offset" />
          </mxGeometry>
        </mxCell>
        <mxCell id="leE8Cb88VZXqTR05hnTv-42" value="ticket&lt;br&gt;校验通过" style="html=1;align=left;spacingLeft=2;endArrow=block;rounded=0;edgeStyle=orthogonalEdgeStyle;curved=0;rounded=0;fontSize=11;" edge="1" parent="1">
          <mxGeometry x="-0.0601" relative="1" as="geometry">
            <mxPoint x="665" y="520" as="sourcePoint" />
            <Array as="points">
              <mxPoint x="695" y="550" />
            </Array>
            <mxPoint x="670" y="550" as="targetPoint" />
            <mxPoint as="offset" />
          </mxGeometry>
        </mxCell>
        <mxCell id="leE8Cb88VZXqTR05hnTv-43" value="success" style="html=1;verticalAlign=bottom;endArrow=open;dashed=1;endSize=8;curved=0;rounded=0;" edge="1" parent="1">
          <mxGeometry relative="1" as="geometry">
            <mxPoint x="655" y="550" as="sourcePoint" />
            <mxPoint x="250" y="550" as="targetPoint" />
          </mxGeometry>
        </mxCell>
        <mxCell id="leE8Cb88VZXqTR05hnTv-44" value="凭证有效&lt;br&gt;处理业务" style="html=1;align=left;spacingLeft=2;endArrow=block;rounded=0;edgeStyle=orthogonalEdgeStyle;curved=0;rounded=0;fontSize=11;" edge="1" parent="1" target="leE8Cb88VZXqTR05hnTv-37">
          <mxGeometry x="-0.0601" relative="1" as="geometry">
            <mxPoint x="245" y="560" as="sourcePoint" />
            <Array as="points">
              <mxPoint x="275" y="560" />
              <mxPoint x="275" y="590" />
            </Array>
            <mxPoint x="250" y="590" as="targetPoint" />
            <mxPoint as="offset" />
          </mxGeometry>
        </mxCell>
        <mxCell id="leE8Cb88VZXqTR05hnTv-45" value="业务数据返回" style="html=1;verticalAlign=bottom;endArrow=open;dashed=1;endSize=8;curved=0;rounded=0;" edge="1" parent="1" target="leE8Cb88VZXqTR05hnTv-28">
          <mxGeometry relative="1" as="geometry">
            <mxPoint x="235" y="590" as="sourcePoint" />
            <mxPoint y="590" as="targetPoint" />
          </mxGeometry>
        </mxCell>
        <mxCell id="leE8Cb88VZXqTR05hnTv-47" value="" style="endArrow=none;dashed=1;html=1;rounded=0;entryX=0.5;entryY=1;entryDx=0;entryDy=0;" edge="1" parent="1" target="leE8Cb88VZXqTR05hnTv-46">
          <mxGeometry width="50" height="50" relative="1" as="geometry">
            <mxPoint x="-31" y="880" as="sourcePoint" />
            <mxPoint x="-30" y="600" as="targetPoint" />
          </mxGeometry>
        </mxCell>
        <mxCell id="leE8Cb88VZXqTR05hnTv-46" value="" style="html=1;points=[[0,0,0,0,5],[0,1,0,0,-5],[1,0,0,0,5],[1,1,0,0,-5]];perimeter=orthogonalPerimeter;outlineConnect=0;targetShapes=umlLifeline;portConstraint=eastwest;newEdgeStyle={&quot;curved&quot;:0,&quot;rounded&quot;:0};fillColor=#f5f5f5;fontColor=#333333;strokeColor=#666666;fontSize=11;" vertex="1" parent="1">
          <mxGeometry x="-35" y="640" width="10" height="180" as="geometry" />
        </mxCell>
        <mxCell id="leE8Cb88VZXqTR05hnTv-50" value="" style="endArrow=none;dashed=1;html=1;rounded=0;entryX=0.5;entryY=1;entryDx=0;entryDy=0;" edge="1" parent="1" target="leE8Cb88VZXqTR05hnTv-49">
          <mxGeometry width="50" height="50" relative="1" as="geometry">
            <mxPoint x="459" y="880" as="sourcePoint" />
            <mxPoint x="459.5" y="240" as="targetPoint" />
          </mxGeometry>
        </mxCell>
        <mxCell id="leE8Cb88VZXqTR05hnTv-49" value="" style="html=1;points=[[0,0,0,0,5],[0,1,0,0,-5],[1,0,0,0,5],[1,1,0,0,-5]];perimeter=orthogonalPerimeter;outlineConnect=0;targetShapes=umlLifeline;portConstraint=eastwest;newEdgeStyle={&quot;curved&quot;:0,&quot;rounded&quot;:0};fillColor=#dae8fc;strokeColor=#6c8ebf;fontSize=11;" vertex="1" parent="1">
          <mxGeometry x="455" y="640" width="10" height="60" as="geometry" />
        </mxCell>
        <mxCell id="leE8Cb88VZXqTR05hnTv-51" value="访问https://b.example.com/home" style="html=1;verticalAlign=bottom;endArrow=block;curved=0;rounded=0;fontSize=11;" edge="1" parent="1" target="leE8Cb88VZXqTR05hnTv-49">
          <mxGeometry x="-0.0049" width="80" relative="1" as="geometry">
            <mxPoint x="-25" y="650" as="sourcePoint" />
            <mxPoint x="235" y="650" as="targetPoint" />
            <Array as="points">
              <mxPoint x="70" y="650" />
            </Array>
            <mxPoint as="offset" />
          </mxGeometry>
        </mxCell>
        <mxCell id="leE8Cb88VZXqTR05hnTv-52" value="ticket&amp;nbsp; 校验不通过" style="html=1;align=left;spacingLeft=2;endArrow=block;rounded=0;edgeStyle=orthogonalEdgeStyle;curved=0;rounded=0;fontSize=11;" edge="1" parent="1">
          <mxGeometry x="-0.0601" relative="1" as="geometry">
            <mxPoint x="465" y="650" as="sourcePoint" />
            <Array as="points">
              <mxPoint x="495" y="680" />
            </Array>
            <mxPoint x="470" y="680" as="targetPoint" />
            <mxPoint as="offset" />
          </mxGeometry>
        </mxCell>
        <mxCell id="leE8Cb88VZXqTR05hnTv-53" value="https://sso.example.com/login?&lt;br&gt;redirect=a.example.com/home" style="html=1;verticalAlign=bottom;endArrow=open;dashed=1;endSize=8;curved=0;rounded=0;" edge="1" parent="1">
          <mxGeometry relative="1" as="geometry">
            <mxPoint x="235" y="310" as="sourcePoint" />
            <mxPoint x="-25" y="310" as="targetPoint" />
          </mxGeometry>
        </mxCell>
      </root>
    </mxGraphModel>
  </diagram>
</mxfile>
